<?xml version="1.0" encoding="utf-8"?>
<!-- Generator: Adobe Illustrator 12.0.0, SVG Export Plug-In . SVG Version: 6.00 Build 51448)  -->
<!DOCTYPE svg PUBLIC "-//W3C//DTD SVG 1.1//EN" "http://www.w3.org/Graphics/SVG/1.1/DTD/svg11.dtd" [
	<!ENTITY ns_svg "http://www.w3.org/2000/svg">
	<!ENTITY ns_xlink "http://www.w3.org/1999/xlink">
]>
<svg  version="1.1" id="Layer_1" xmlns="&ns_svg;" xmlns:xlink="&ns_xlink;" width="76" height="7" viewBox="0 0 76 7"
	 overflow="visible" enable-background="new 0 0 76 7" xml:space="preserve">
<g>
	<path fill="none" d="M38,0.333c7.514,0,14.602,2.223,21.175,4.444C64.906,6.715,73.813,6.964,76,6.995V0H0v6.994
		C2.082,6.96,10.315,6.703,16.825,4.776C24.338,2.555,30.067,0.333,38,0.333z"/>
	<path fill="#30AAE1" d="M59.175,4.776C52.602,2.556,45.514,0.333,38,0.333c-7.933,0-13.662,2.222-21.175,4.444
		C10.315,6.703,2.082,6.96,0,6.994V7h76V6.995C73.813,6.964,64.906,6.715,59.175,4.776z"/>
</g>
</svg>
